<?xml version="1.0" standalone="no"?>
<!DOCTYPE svg PUBLIC "-//W3C//DTD SVG 20010904//EN"
 "http://www.w3.org/TR/2001/REC-SVG-20010904/DTD/svg10.dtd">
<svg version="1.0" xmlns="http://www.w3.org/2000/svg"
 width="868.000000pt" height="868.000000pt" viewBox="0 0 868.000000 868.000000"
 preserveAspectRatio="xMidYMid meet">
<metadata>
Created by potrace 1.14, written by Peter Selinger 2001-2017
</metadata>
<g transform="translate(0.000000,868.000000) scale(0.100000,-0.100000)"
fill="#000000" stroke="none">
<path d="M6007 6734 c-1 -1 -29 -5 -62 -8 -79 -9 -232 -48 -300 -76 -11 -4
-45 -18 -75 -30 -66 -27 -202 -96 -250 -127 -19 -13 -43 -29 -54 -36 -100 -65
-287 -235 -339 -307 -50 -70 -127 -191 -153 -240 -62 -116 -132 -307 -149
-410 -3 -19 -10 -53 -15 -75 -28 -130 -30 -409 -4 -585 7 -52 71 -249 86 -267
6 -7 8 -13 5 -13 -3 0 12 -32 34 -71 21 -40 39 -74 39 -76 0 -2 27 -39 59 -82
124 -163 256 -261 431 -321 50 -17 91 -22 175 -23 163 -3 269 15 364 61 68 33
70 32 65 -50 -21 -421 -219 -883 -487 -1136 -63 -60 -171 -144 -214 -167 -21
-11 -40 -23 -43 -26 -9 -12 -220 -117 -258 -130 -20 -6 -41 -15 -47 -19 -15
-12 -266 -92 -330 -106 -5 -1 -30 -7 -55 -14 -25 -7 -56 -14 -70 -16 -14 -2
-36 -7 -50 -10 -64 -15 -77 -17 -150 -29 -14 -2 -54 -8 -90 -14 -36 -6 -85
-13 -110 -16 -25 -3 -61 -7 -80 -10 -67 -8 -156 -16 -225 -20 -38 -2 -119 -7
-180 -11 -267 -17 -941 -6 -1236 20 -35 3 -95 8 -134 11 -38 3 -88 8 -110 11
-22 2 -65 7 -95 9 -30 3 -68 7 -85 10 -16 2 -57 7 -90 10 -33 3 -71 8 -85 11
-14 3 -45 7 -70 10 -25 3 -72 9 -105 15 -33 5 -78 12 -100 14 -22 2 -51 6 -65
9 -14 2 -47 7 -75 11 -27 3 -63 8 -80 10 -16 3 -46 7 -65 10 -19 2 -46 7 -60
9 -14 2 -59 10 -100 16 -41 6 -91 16 -110 20 -36 9 -69 16 -129 26 -18 3 -42
8 -52 10 -45 10 -56 12 -99 19 -25 4 -54 9 -65 12 -91 19 -204 33 -236 29 -35
-4 -58 -27 -60 -60 -8 -133 7 -242 39 -277 11 -11 34 -24 53 -30 45 -14 181
-47 222 -55 90 -16 185 -34 207 -39 14 -2 43 -7 65 -10 22 -3 51 -7 65 -9 14
-3 41 -7 60 -10 19 -3 46 -8 60 -10 14 -3 45 -7 70 -10 25 -3 54 -8 65 -10 11
-2 46 -7 77 -10 31 -4 82 -11 113 -16 32 -5 60 -9 64 -8 3 1 22 -1 41 -5 19
-3 58 -9 85 -12 28 -3 66 -7 85 -10 19 -3 58 -7 85 -10 28 -2 73 -7 100 -11
28 -3 68 -7 90 -9 22 -2 56 -5 75 -8 19 -3 73 -9 120 -12 47 -3 99 -8 115 -11
38 -5 163 -13 330 -20 189 -8 936 -8 1175 1 209 7 233 8 349 20 59 5 84 8 181
21 14 2 48 6 75 9 131 15 409 68 525 101 30 8 68 17 84 20 45 9 281 92 352
125 34 16 67 29 73 29 6 0 11 5 11 10 0 6 5 10 11 10 12 0 179 97 189 109 3 4
24 22 48 40 176 137 319 354 407 614 27 82 64 226 80 320 3 15 7 39 10 55 3
15 7 38 10 52 11 56 14 77 19 110 3 19 10 55 15 80 5 25 14 69 20 98 55 271
148 482 282 647 143 174 286 316 454 450 63 50 129 110 169 154 17 19 36 39
42 45 23 24 120 155 138 187 43 74 69 128 103 209 65 155 74 198 75 350 0 58
-5 128 -12 155 -6 28 -13 57 -15 65 -2 8 -5 22 -7 30 -8 37 40 5 109 -72 43
-49 103 -133 103 -146 0 -6 3 -12 8 -14 4 -1 22 -37 40 -78 19 -41 38 -84 43
-95 5 -11 11 -30 14 -43 2 -12 7 -27 10 -32 3 -5 8 -18 10 -27 3 -10 9 -38 16
-63 21 -87 25 -124 34 -315 16 -329 31 -392 128 -542 24 -38 53 -85 66 -105
l22 -37 -30 -28 c-17 -15 -44 -39 -61 -51 -56 -44 -72 -96 -84 -277 -3 -33 -5
-60 -6 -60 0 0 -3 -30 -6 -67 -5 -79 -38 -265 -56 -325 -20 -63 -73 -132 -116
-150 -26 -12 -68 -16 -147 -17 -187 0 -385 21 -345 37 8 3 60 23 115 43 55 20
112 45 126 55 14 10 28 17 30 15 2 -2 35 15 73 39 54 33 76 54 98 92 37 65 49
130 33 177 -7 20 -10 36 -8 36 3 0 0 7 -7 15 -7 8 -10 15 -6 15 3 0 0 16 -8
35 -9 20 -15 37 -16 40 -1 8 -12 39 -20 60 -5 11 -11 29 -13 40 -3 11 -17 54
-32 95 -48 137 -36 258 45 445 26 60 48 113 59 140 5 11 16 38 25 60 23 56 17
386 -8 457 -22 58 -42 78 -51 49 -3 -12 -11 -21 -16 -21 -5 0 -9 -7 -9 -15 0
-8 -4 -23 -9 -33 -5 -9 -37 -73 -71 -142 -34 -69 -85 -159 -112 -200 -58 -85
-197 -228 -308 -316 -41 -32 -77 -61 -80 -64 -3 -3 -30 -25 -60 -50 -102 -83
-114 -95 -222 -202 -143 -142 -223 -264 -320 -488 -16 -36 -85 -242 -93 -276
-2 -10 -16 -62 -30 -114 -14 -52 -32 -124 -41 -160 -8 -36 -17 -74 -19 -85 -3
-11 -8 -35 -11 -54 -3 -19 -10 -46 -16 -60 -5 -14 -9 -26 -8 -26 2 0 -9 -64
-16 -95 -6 -28 -32 -125 -49 -180 -9 -30 -17 -62 -20 -70 -2 -8 -10 -35 -18
-60 -14 -42 -31 -110 -42 -170 -10 -52 -8 -157 5 -196 54 -175 306 -183 495
-17 65 58 155 227 175 331 14 68 35 83 38 26 4 -51 66 -210 92 -234 3 -3 17
-21 30 -40 29 -41 97 -110 160 -162 40 -32 176 -107 205 -112 5 -1 35 -9 65
-18 30 -9 62 -16 70 -15 8 0 24 -3 35 -6 11 -4 25 -3 31 1 16 11 53 116 60
171 8 68 -14 85 -132 105 -87 15 -177 62 -244 128 -39 37 -82 92 -86 108 0 3
-9 23 -18 45 -10 22 -20 51 -23 65 -8 42 -9 142 -1 192 6 43 59 168 83 195 5
6 21 27 35 46 14 19 47 51 75 72 l50 37 120 -7 c197 -13 335 -9 401 10 87 25
186 80 211 118 28 41 60 133 67 190 2 23 5 42 7 42 2 0 5 22 14 110 4 38 8 76
10 85 3 19 15 123 20 175 3 42 15 126 21 160 7 37 39 66 97 90 76 30 124 68
132 103 8 38 -17 108 -66 188 -21 35 -39 69 -39 74 0 6 -4 10 -10 10 -5 0 -10
9 -10 19 0 11 -4 21 -8 23 -10 4 -72 126 -72 143 0 7 -4 15 -8 17 -8 3 -47
121 -57 173 -13 68 -19 162 -27 365 0 8 -6 48 -14 89 -52 284 -197 547 -425
771 -105 104 -156 144 -299 236 -58 38 -254 134 -272 134 -8 0 -18 4 -23 9
-11 10 -158 58 -203 66 -15 2 -42 9 -59 14 -18 5 -33 8 -33 6 0 -3 -11 0 -25
5 -14 5 -46 12 -72 16 -27 3 -51 8 -54 10 -19 11 -441 28 -452 18z m371 -248
c4 -2 30 -6 59 -10 28 -3 62 -10 75 -15 13 -5 25 -9 28 -9 4 0 74 -19 100 -27
56 -18 192 -88 197 -102 3 -7 10 -13 15 -13 11 0 121 -112 153 -155 72 -97
107 -218 108 -365 0 -163 -40 -280 -150 -434 -53 -74 -84 -108 -272 -291 -250
-244 -516 -510 -591 -590 -36 -39 -78 -78 -93 -88 -26 -17 -27 -17 -28 0 -8
156 20 361 61 458 29 67 57 89 151 119 94 31 94 31 199 80 146 68 314 196 387
296 22 30 55 84 73 120 17 36 35 72 40 80 16 33 23 89 22 197 0 103 -3 116
-31 175 -28 59 -49 88 -103 146 -30 32 -134 112 -146 112 -6 0 -12 4 -14 8
-10 26 -199 95 -303 111 -55 9 -369 7 -405 -2 -76 -19 -124 -34 -175 -53 -11
-4 -25 -8 -31 -9 -27 -6 -238 -117 -291 -153 -87 -59 -182 -146 -238 -217 -51
-65 -105 -145 -97 -145 4 0 2 -4 -4 -8 -16 -10 -69 -125 -94 -204 -49 -152
-59 -371 -26 -544 10 -48 38 -161 46 -179 4 -11 24 -61 45 -111 56 -140 148
-274 221 -321 24 -16 133 -74 136 -72 2 0 24 -5 50 -11 63 -16 51 -32 -21 -29
-147 7 -295 86 -406 220 -100 119 -188 336 -198 485 -2 34 -6 65 -8 70 -7 14
-2 336 5 362 3 12 8 30 10 40 16 73 100 299 115 312 3 3 7 12 9 20 2 8 8 17
13 18 5 2 9 9 9 15 0 31 126 194 230 297 177 177 350 283 595 364 61 20 121
39 135 42 14 3 41 10 60 14 33 8 364 5 378 -4z"/>
</g>
</svg>
