<svg width="834" height="196" viewBox="0 0 834 196" fill="none" xmlns="http://www.w3.org/2000/svg">
<path d="M216.478 0.467972C201.572 2.73659 185.565 12.8662 177.262 25.3173C169.608 36.7659 165.907 49.3224 165.907 63.8311C165.907 72.5362 166.757 77.601 169.258 84.0904C173.91 96.3304 181.813 104.772 191.418 107.884C197.12 109.784 206.374 108.992 211.576 106.249C212.627 105.669 213.577 105.247 213.727 105.247C214.277 105.247 213.927 111.261 212.977 116.959C210.676 131.204 203.223 146.293 194.519 154.365C183.714 164.389 167.357 171.089 145.698 174.36C120.187 178.264 85.2223 177.631 52.4082 172.778C48.7067 172.197 42.3039 171.3 38.1522 170.667C34.0504 170.087 29.5485 169.348 28.1479 169.084C4.03761 164.02 1.98673 163.756 0.886261 165.128C-0.664402 167.08 -0.0641479 175.679 1.78664 178.053C4.03761 180.902 46.8059 187.708 78.4194 190.293C91.3749 191.349 131.542 191.19 141.946 190.03C155.302 188.5 161.805 187.444 170.859 185.123C193.518 179.425 206.074 170.562 213.327 155.103C216.678 148.034 218.629 140.595 220.73 127.405C222.481 116.009 224.582 107.937 227.183 102.345C231.035 94.22 239.638 83.7738 248.992 76.0183C259.096 67.5769 264.449 59.6631 268.651 46.9483C270.001 42.7804 270.101 33.3893 268.851 29.8545C267.45 26.0559 268.551 26.2669 272.202 30.3821C276.154 34.8666 279.205 41.0921 281.256 48.7948C282.406 53.0155 282.657 55.3897 283.007 63.8311C283.457 75.9128 284.207 78.92 288.309 85.251C289.86 87.5724 290.96 89.841 290.81 90.2104C290.66 90.6324 289.66 91.5821 288.559 92.3207C285.558 94.2728 285.058 95.8028 284.457 104.086C283.507 118.225 281.806 125.084 278.755 127.194C276.504 128.724 274.003 128.988 266.5 128.408C262.498 128.144 259.046 127.669 258.846 127.458C258.596 127.194 259.497 126.719 260.797 126.403C264.449 125.4 273.152 120.916 274.653 119.175C275.403 118.331 276.354 116.431 276.804 114.954C277.504 112.422 277.454 112.052 276.304 108.096C275.654 105.827 274.303 101.553 273.253 98.6517C270.651 91.16 270.801 89.0497 275.003 78.3397L278.205 70.1621V63.3035C278.255 57.9221 278.055 55.8645 277.354 53.6487C276.854 52.1714 276.254 50.9052 276.004 50.9052C275.754 50.9052 275.153 51.9076 274.653 53.0683C268.45 67.8935 265.149 72.5362 254.444 81.4524C246.491 88.1 240.389 94.1145 237.537 98.1241C230.634 107.832 226.683 119.597 221.48 146.134C220.98 148.72 219.58 153.943 218.429 157.741C214.928 169.19 215.528 175.363 220.38 177.842C224.682 180.058 231.085 178.317 235.536 173.727C238.238 170.984 241.239 164.758 242.089 160.221C242.539 158.005 242.739 157.53 243.04 158.322C243.24 158.849 243.44 160.063 243.44 160.96C243.49 161.857 244.34 164.389 245.341 166.499C247.742 171.617 252.894 177.104 257.796 179.794C261.347 181.747 267.85 183.593 269.201 183.013C269.851 182.749 271.502 177.051 271.502 174.993C271.502 173.463 270.401 172.778 267 172.197C260.947 171.195 256.045 167.396 253.544 161.751C252.444 159.271 252.244 158.058 252.244 154.312C252.244 150.408 252.444 149.406 253.794 146.398C255.545 142.441 257.796 139.592 260.347 137.904C261.948 136.849 262.448 136.796 266.149 137.218C268.4 137.482 272.402 137.64 275.003 137.64C279.005 137.588 280.306 137.377 283.257 136.11C290.51 133.05 291.11 131.573 293.161 111.05C294.412 99.0738 293.961 100.076 298.463 98.3352C299.364 97.9659 300.814 97.1217 301.565 96.3831C303.716 94.4838 303.515 92.5845 300.514 87.3086C293.711 75.1741 292.011 69.8983 292.011 60.5073C292.011 45.2073 285.958 31.1207 274.403 19.4611C265.949 10.9669 254.344 4.6359 242.489 2.15625C240.138 1.62866 237.337 1.04831 236.237 0.784515C232.385 -0.112381 221.43 -0.270649 216.478 0.467972ZM238.988 11.0724C246.191 13.13 249.592 14.9766 253.444 19.0918C258.146 24.1038 259.747 27.3221 260.447 33.2311C261.948 45.4183 258.296 53.0155 244.49 66.68C235.536 75.5435 226.783 84.7235 222.381 89.8938C220.43 92.1624 218.829 93.5869 218.479 93.3759C218.079 93.1121 218.029 91.2655 218.229 87.1504C218.729 78.4979 220.58 72.3779 223.081 71.1117C223.681 70.7952 225.582 70.1621 227.233 69.6345C233.736 67.6824 240.839 63.1979 245.791 58.0276C247.992 55.759 249.442 53.5431 251.043 50.1666C253.194 45.5238 253.244 45.3655 253.244 40.1424C253.244 35.2887 253.094 34.55 251.793 31.9121C248.492 25.2645 240.689 19.7249 231.985 17.8783C227.233 16.8759 217.679 17.1397 213.227 18.4059C208.075 19.8831 201.872 22.8376 197.47 25.8976C186.065 33.8114 178.962 47.1066 178.962 60.5073C178.962 69.0542 180.663 76.9152 184.064 84.3541C188.016 92.8483 191.868 96.3831 199.221 98.1769L200.722 98.4935L199.421 99.021C198.521 99.3376 196.92 99.2321 194.569 98.7045C188.216 97.3328 182.014 91.7403 178.762 84.4597C175.461 77.2317 174.861 74.2245 174.56 64.5169C174.36 56.1811 174.41 55.4424 175.661 50.7997C178.362 40.7228 183.014 32.4397 189.717 25.6866C196.82 18.4587 203.673 14.3962 214.227 11.0724C220.13 9.2259 220.33 9.22589 227.233 9.48969C232.535 9.64796 235.386 10.07 238.988 11.0724Z" fill="black"/>
<path d="M833.396 34.0959C833.652 34.0959 833.78 34.3519 833.78 34.8639C833.78 35.3759 833.652 35.6319 833.396 35.6319C830.239 35.6319 827.977 36.5706 826.612 38.448C825.247 40.3253 824.564 43.5253 824.564 48.0479V95.4079C824.564 95.5786 824.351 95.7066 823.924 95.7919C823.497 95.8773 823.199 95.8346 823.028 95.664L781.044 44.5919C780.617 44.1653 780.063 43.5253 779.38 42.672V80.0479C779.38 84.5706 780.02 87.7706 781.3 89.6479C782.58 91.5253 784.799 92.4639 787.956 92.4639C788.127 92.4639 788.212 92.7199 788.212 93.2319C788.212 93.7439 788.127 94 787.956 94C786.079 94 784.628 93.9573 783.604 93.8719L778.228 93.744L772.724 93.8719C771.615 93.9573 770.079 94 768.116 94C767.945 94 767.86 93.7439 767.86 93.2319C767.86 92.7199 767.945 92.4639 768.116 92.4639C771.273 92.4639 773.492 91.5253 774.772 89.6479C776.137 87.7706 776.82 84.5706 776.82 80.0479V40.112C775.113 38.4906 773.577 37.3386 772.212 36.6559C770.847 35.9733 769.481 35.6319 768.116 35.6319C767.945 35.6319 767.86 35.3759 767.86 34.8639C767.86 34.3519 767.945 34.0959 768.116 34.0959L775.284 34.2239L782.068 34.0959C782.665 34.0959 783.135 34.2666 783.476 34.6079C783.903 34.9493 784.5 35.6746 785.268 36.7839C785.951 37.8933 786.889 39.216 788.084 40.752L822.004 82.608V48.0479C822.004 43.5253 821.364 40.3253 820.084 38.448C818.889 36.5706 816.713 35.6319 813.556 35.6319C813.3 35.6319 813.172 35.3759 813.172 34.8639C813.172 34.3519 813.3 34.0959 813.556 34.0959L817.908 34.2239C820.127 34.3946 821.919 34.4799 823.284 34.4799C824.649 34.4799 826.527 34.3946 828.916 34.2239L833.396 34.0959Z" fill="black"/>
<path d="M750.82 46.64C750.82 42.3733 750.137 39.4719 748.772 37.9359C747.407 36.3999 744.761 35.6319 740.836 35.6319C740.58 35.6319 740.452 35.3759 740.452 34.8639C740.452 34.3519 740.58 34.0959 740.836 34.0959L745.956 34.2239C748.516 34.3946 750.564 34.4799 752.1 34.4799C753.295 34.4799 755.087 34.3946 757.476 34.2239L762.34 34.0959C762.511 34.0959 762.596 34.3519 762.596 34.8639C762.596 35.3759 762.511 35.6319 762.34 35.6319C758.927 35.6319 756.58 36.3999 755.3 37.9359C754.105 39.4719 753.508 42.3733 753.508 46.64V70.448C753.508 78.384 751.289 84.5706 746.852 89.0079C742.415 93.4453 736.441 95.664 728.932 95.664C724.153 95.664 719.801 94.7253 715.876 92.8479C711.951 90.8853 708.836 88.112 706.532 84.528C704.228 80.944 703.076 76.6773 703.076 71.728V44.4639C703.076 41.9039 702.82 40.0266 702.308 38.8319C701.881 37.6373 700.985 36.8266 699.62 36.3999C698.34 35.8879 696.335 35.6319 693.604 35.6319C693.348 35.6319 693.22 35.3759 693.22 34.8639C693.22 34.3519 693.348 34.0959 693.604 34.0959L699.364 34.2239C702.436 34.3946 704.868 34.4799 706.66 34.4799C708.793 34.4799 711.481 34.3946 714.724 34.2239L720.228 34.0959C720.484 34.0959 720.612 34.3519 720.612 34.8639C720.612 35.3759 720.484 35.6319 720.228 35.6319C717.497 35.6319 715.449 35.8879 714.084 36.3999C712.719 36.9119 711.78 37.808 711.268 39.088C710.841 40.2826 710.628 42.16 710.628 44.72V68.3999C710.628 76.3359 712.591 82.2239 716.516 86.0639C720.527 89.8186 725.647 91.696 731.876 91.696C737.764 91.696 742.372 89.9039 745.7 86.3199C749.113 82.6506 750.82 77.4453 750.82 70.7039V46.64Z" fill="black"/>
<path d="M692.194 92.4641C692.535 92.4641 692.706 92.7201 692.706 93.2321C692.706 93.7441 692.535 94.0001 692.194 94.0001C690.658 94.0001 688.183 93.9147 684.77 93.7441C681.357 93.5734 678.882 93.4881 677.346 93.4881C675.981 93.4881 674.189 93.5734 671.97 93.7441C669.751 93.9147 668.045 94.0001 666.85 94.0001C666.509 94.0001 666.338 93.7441 666.338 93.2321C666.338 92.7201 666.509 92.4641 666.85 92.4641C669.069 92.4641 670.69 92.2081 671.714 91.6961C672.823 91.0987 673.378 90.0747 673.378 88.6241C673.378 87.3441 672.866 85.5521 671.842 83.2481L663.138 64.5601H645.218L639.714 78.2561C638.349 81.4987 637.666 84.1867 637.666 86.3201C637.666 88.5387 638.434 90.1174 639.97 91.0561C641.506 91.9947 643.853 92.4641 647.01 92.4641C647.437 92.4641 647.65 92.7201 647.65 93.2321C647.65 93.7441 647.437 94.0001 647.01 94.0001C645.73 94.0001 643.981 93.9147 641.762 93.7441C639.373 93.5734 637.154 93.4881 635.106 93.4881C632.973 93.4881 630.455 93.5734 627.554 93.7441C624.994 93.9147 622.946 94.0001 621.41 94.0001C620.983 94.0001 620.77 93.7441 620.77 93.2321C620.77 92.7201 620.983 92.4641 621.41 92.4641C624.055 92.4641 626.146 92.1227 627.682 91.4401C629.218 90.6721 630.626 89.2214 631.906 87.0881C633.271 84.9547 634.893 81.6267 636.77 77.1041L655.202 32.1761C655.373 31.8347 655.629 31.6641 655.97 31.6641C656.311 31.6641 656.525 31.8347 656.61 32.1761L677.218 76.4641C679.437 81.2427 681.186 84.6987 682.466 86.8321C683.831 88.9654 685.197 90.4587 686.562 91.3121C688.013 92.0801 689.89 92.4641 692.194 92.4641ZM646.114 62.2561H662.114L653.538 43.8241L646.114 62.2561Z" fill="black"/>
<path d="M617.253 92.4639C617.424 92.4639 617.509 92.7199 617.509 93.2319C617.509 93.7439 617.424 94 617.253 94C614.864 94 612.986 93.9573 611.621 93.8719L604.069 93.744L595.365 93.8719C593.914 93.9573 591.909 94 589.349 94C589.178 94 589.093 93.7439 589.093 93.2319C589.093 92.7199 589.178 92.4639 589.349 92.4639C592.506 92.4639 594.853 92.2506 596.389 91.8239C597.925 91.3119 598.949 90.4586 599.461 89.2639C599.973 88.0693 600.144 86.192 599.973 83.632L598.437 40.496L576.421 93.1039C576.25 93.4453 575.952 93.616 575.525 93.616C575.013 93.616 574.672 93.4453 574.501 93.1039L550.053 44.72L549.797 44.2079L548.645 80.0479C548.56 84.5706 549.157 87.7706 550.437 89.6479C551.717 91.5253 553.893 92.4639 556.965 92.4639C557.221 92.4639 557.349 92.7199 557.349 93.2319C557.349 93.7439 557.221 94 556.965 94C555.173 94 553.808 93.9573 552.869 93.8719L547.237 93.744L541.861 93.8719C540.752 93.9573 539.216 94 537.253 94C537.082 94 536.997 93.7439 536.997 93.2319C536.997 92.7199 537.082 92.4639 537.253 92.4639C540.41 92.4639 542.629 91.5253 543.909 89.6479C545.189 87.7706 545.914 84.5706 546.085 80.0479L547.365 40.368C544.89 37.2106 541.861 35.6319 538.277 35.6319C538.021 35.6319 537.893 35.3759 537.893 34.8639C537.893 34.3519 538.021 34.0959 538.277 34.0959L545.317 34.2239L551.461 34.0959C552.57 34.0959 553.466 34.4799 554.149 35.2479C554.832 36.0159 555.898 37.8506 557.349 40.752L578.341 82.4799L597.285 37.2959C597.626 36.3573 598.138 35.5893 598.821 34.9919C599.589 34.3946 600.357 34.0959 601.125 34.0959L607.909 34.2239L616.485 34.0959C616.656 34.0959 616.741 34.3519 616.741 34.8639C616.741 35.3759 616.656 35.6319 616.485 35.6319C612.645 35.6319 609.957 36.2293 608.421 37.424C606.885 38.5333 606.202 40.7946 606.373 44.2079L607.909 83.632C608.08 86.2773 608.378 88.1973 608.805 89.392C609.232 90.5866 610.042 91.3973 611.237 91.8239C612.517 92.2506 614.522 92.4639 617.253 92.4639Z" fill="black"/>
<path d="M519.445 46.64C519.445 42.3733 518.762 39.4719 517.397 37.9359C516.032 36.3999 513.386 35.6319 509.461 35.6319C509.205 35.6319 509.077 35.3759 509.077 34.8639C509.077 34.3519 509.205 34.0959 509.461 34.0959L514.581 34.2239C517.141 34.3946 519.189 34.4799 520.725 34.4799C521.92 34.4799 523.712 34.3946 526.101 34.2239L530.965 34.0959C531.136 34.0959 531.221 34.3519 531.221 34.8639C531.221 35.3759 531.136 35.6319 530.965 35.6319C527.552 35.6319 525.205 36.3999 523.925 37.9359C522.73 39.4719 522.133 42.3733 522.133 46.64V70.448C522.133 78.384 519.914 84.5706 515.477 89.0079C511.04 93.4453 505.066 95.664 497.557 95.664C492.778 95.664 488.426 94.7253 484.501 92.8479C480.576 90.8853 477.461 88.112 475.157 84.528C472.853 80.944 471.701 76.6773 471.701 71.728V44.4639C471.701 41.9039 471.445 40.0266 470.933 38.8319C470.506 37.6373 469.61 36.8266 468.245 36.3999C466.965 35.8879 464.96 35.6319 462.229 35.6319C461.973 35.6319 461.845 35.3759 461.845 34.8639C461.845 34.3519 461.973 34.0959 462.229 34.0959L467.989 34.2239C471.061 34.3946 473.493 34.4799 475.285 34.4799C477.418 34.4799 480.106 34.3946 483.349 34.2239L488.853 34.0959C489.109 34.0959 489.237 34.3519 489.237 34.8639C489.237 35.3759 489.109 35.6319 488.853 35.6319C486.122 35.6319 484.074 35.8879 482.709 36.3999C481.344 36.9119 480.405 37.808 479.893 39.088C479.466 40.2826 479.253 42.16 479.253 44.72V68.3999C479.253 76.3359 481.216 82.2239 485.141 86.0639C489.152 89.8186 494.272 91.696 500.501 91.696C506.389 91.696 510.997 89.9039 514.325 86.3199C517.738 82.6506 519.445 77.4453 519.445 70.7039V46.64Z" fill="black"/>
<path d="M454.192 92.464C454.448 92.464 454.576 92.72 454.576 93.232C454.576 93.744 454.448 94 454.192 94C451.547 94 449.456 93.9573 447.92 93.872L439.088 93.744L429.744 93.872C428.208 93.9573 426.16 94 423.6 94C423.344 94 423.216 93.744 423.216 93.232C423.216 92.72 423.344 92.464 423.6 92.464C426.928 92.464 429.36 92.2507 430.896 91.824C432.432 91.3973 433.456 90.5867 433.968 89.392C434.565 88.112 434.864 86.192 434.864 83.632V53.68H385.712V83.632C385.712 86.192 385.968 88.112 386.48 89.392C387.077 90.5867 388.144 91.3973 389.68 91.824C391.216 92.2507 393.648 92.464 396.976 92.464C397.147 92.464 397.232 92.72 397.232 93.232C397.232 93.744 397.147 94 396.976 94C394.331 94 392.24 93.9573 390.704 93.872L381.488 93.744L372.656 93.872C371.12 93.9573 368.987 94 366.256 94C366.085 94 366 93.744 366 93.232C366 92.72 366.085 92.464 366.256 92.464C369.499 92.464 371.888 92.2507 373.424 91.824C375.045 91.3973 376.112 90.5867 376.624 89.392C377.221 88.112 377.52 86.192 377.52 83.632V24.368C377.52 21.808 377.221 19.9307 376.624 18.736C376.112 17.5413 375.088 16.7307 373.552 16.304C372.016 15.792 369.627 15.536 366.384 15.536C366.213 15.536 366.128 15.28 366.128 14.768C366.128 14.256 366.213 14 366.384 14L372.912 14.128C376.496 14.2987 379.355 14.384 381.488 14.384C383.963 14.384 387.077 14.2987 390.832 14.128L396.976 14C397.147 14 397.232 14.256 397.232 14.768C397.232 15.28 397.147 15.536 396.976 15.536C393.733 15.536 391.301 15.792 389.68 16.304C388.144 16.816 387.077 17.712 386.48 18.992C385.968 20.1867 385.712 22.064 385.712 24.624V50.992H434.864V24.624C434.864 22.064 434.565 20.1867 433.968 18.992C433.456 17.712 432.432 16.816 430.896 16.304C429.36 15.792 426.928 15.536 423.6 15.536C423.344 15.536 423.216 15.28 423.216 14.768C423.216 14.256 423.344 14 423.6 14L429.744 14.128C433.499 14.2987 436.613 14.384 439.088 14.384C441.392 14.384 444.336 14.2987 447.92 14.128L454.192 14C454.448 14 454.576 14.256 454.576 14.768C454.576 15.28 454.448 15.536 454.192 15.536C450.949 15.536 448.56 15.792 447.024 16.304C445.488 16.7307 444.421 17.5413 443.824 18.736C443.312 19.9307 443.056 21.808 443.056 24.368V83.632C443.056 86.192 443.312 88.112 443.824 89.392C444.421 90.5867 445.488 91.3973 447.024 91.824C448.56 92.2507 450.949 92.464 454.192 92.464Z" fill="black"/>
<path d="M627.909 181.344C626.928 181.344 625.733 181.28 624.325 181.152C622.96 181.024 621.594 180.875 620.229 180.704C618.864 180.491 617.648 180.299 616.581 180.128L616.837 175.84C617.904 175.968 619.098 176.118 620.421 176.288C621.786 176.459 623.109 176.608 624.389 176.736C625.669 176.822 626.693 176.864 627.461 176.864C629.21 176.864 630.661 176.715 631.813 176.416C632.965 176.075 633.84 175.52 634.437 174.752C635.034 173.984 635.333 172.896 635.333 171.488C635.333 170.422 635.098 169.59 634.629 168.992C634.202 168.395 633.37 167.904 632.133 167.52C630.938 167.136 629.189 166.774 626.885 166.432C624.496 166.048 622.49 165.579 620.869 165.024C619.29 164.427 618.117 163.552 617.349 162.4C616.581 161.248 616.197 159.606 616.197 157.472C616.197 155.083 616.752 153.206 617.861 151.84C618.97 150.475 620.4 149.515 622.149 148.96C623.941 148.363 625.797 148.064 627.717 148.064C628.912 148.064 630.213 148.128 631.621 148.256C633.072 148.384 634.48 148.555 635.845 148.768C637.21 148.939 638.384 149.11 639.365 149.28L639.237 153.568C638.213 153.398 637.018 153.248 635.653 153.12C634.288 152.95 632.922 152.822 631.557 152.736C630.192 152.608 628.997 152.544 627.973 152.544C626.693 152.544 625.541 152.694 624.517 152.992C623.493 153.248 622.682 153.718 622.085 154.4C621.488 155.083 621.189 156.043 621.189 157.28C621.189 158.219 621.402 158.987 621.829 159.584C622.256 160.139 623.066 160.608 624.261 160.992C625.456 161.376 627.184 161.76 629.445 162.144C632.09 162.571 634.202 163.104 635.781 163.744C637.402 164.384 638.576 165.28 639.301 166.432C640.026 167.584 640.389 169.206 640.389 171.296C640.389 175.051 639.28 177.675 637.061 179.168C634.842 180.619 631.792 181.344 627.909 181.344Z" fill="black"/>
<path d="M591.696 181.344C590.715 181.344 589.521 181.28 588.112 181.152C586.747 181.024 585.382 180.875 584.016 180.704C582.651 180.491 581.435 180.299 580.369 180.128L580.625 175.84C581.691 175.968 582.886 176.118 584.208 176.288C585.574 176.459 586.896 176.608 588.177 176.736C589.457 176.822 590.48 176.864 591.248 176.864C592.998 176.864 594.448 176.715 595.6 176.416C596.752 176.075 597.627 175.52 598.224 174.752C598.822 173.984 599.12 172.896 599.12 171.488C599.12 170.422 598.886 169.59 598.417 168.992C597.99 168.395 597.158 167.904 595.92 167.52C594.726 167.136 592.977 166.774 590.672 166.432C588.283 166.048 586.278 165.579 584.656 165.024C583.078 164.427 581.904 163.552 581.136 162.4C580.368 161.248 579.984 159.606 579.984 157.472C579.984 155.083 580.539 153.206 581.648 151.84C582.758 150.475 584.187 149.515 585.937 148.96C587.729 148.363 589.585 148.064 591.505 148.064C592.699 148.064 594 148.128 595.409 148.256C596.859 148.384 598.267 148.555 599.633 148.768C600.998 148.939 602.171 149.11 603.152 149.28L603.024 153.568C602 153.398 600.806 153.248 599.44 153.12C598.075 152.95 596.71 152.822 595.344 152.736C593.979 152.608 592.784 152.544 591.76 152.544C590.48 152.544 589.328 152.694 588.305 152.992C587.281 153.248 586.47 153.718 585.872 154.4C585.275 155.083 584.977 156.043 584.977 157.28C584.977 158.219 585.19 158.987 585.616 159.584C586.043 160.139 586.854 160.608 588.048 160.992C589.243 161.376 590.971 161.76 593.232 162.144C595.878 162.571 597.99 163.104 599.568 163.744C601.19 164.384 602.363 165.28 603.089 166.432C603.814 167.584 604.177 169.206 604.177 171.296C604.177 175.051 603.067 177.675 600.849 179.168C598.63 180.619 595.579 181.344 591.696 181.344Z" fill="black"/>
<path d="M554.328 181.344C551.128 181.344 548.589 180.726 546.712 179.488C544.877 178.251 543.555 176.416 542.744 173.984C541.933 171.552 541.528 168.523 541.528 164.896C541.528 160.843 542.083 157.6 543.192 155.168C544.301 152.694 545.859 150.902 547.864 149.792C549.869 148.64 552.237 148.064 554.968 148.064C559.235 148.064 562.456 149.259 564.632 151.648C566.808 153.995 567.896 157.792 567.896 163.04L567.64 166.816H546.584C546.627 170.144 547.245 172.662 548.44 174.368C549.635 176.075 551.789 176.928 554.904 176.928C556.099 176.928 557.4 176.907 558.808 176.864C560.259 176.779 561.688 176.694 563.096 176.608C564.504 176.523 565.699 176.438 566.68 176.352L566.808 180.256C565.784 180.427 564.525 180.598 563.032 180.768C561.581 180.939 560.088 181.067 558.552 181.152C557.016 181.28 555.608 181.344 554.328 181.344ZM546.584 162.784H562.904C562.904 158.859 562.264 156.128 560.984 154.592C559.747 153.014 557.741 152.224 554.968 152.224C552.28 152.224 550.211 153.035 548.76 154.656C547.309 156.278 546.584 158.987 546.584 162.784Z" fill="black"/>
<path d="M514.412 180.704V148.704H519.341V152.992C520.151 152.437 521.175 151.84 522.412 151.2C523.65 150.517 525.015 149.877 526.508 149.28C528.002 148.683 529.495 148.256 530.989 148V153.056C529.538 153.355 528.066 153.76 526.573 154.272C525.079 154.741 523.693 155.253 522.412 155.808C521.175 156.363 520.151 156.853 519.341 157.28V180.704H514.412Z" fill="black"/>
<path d="M487.427 195.744C484.099 195.744 481.411 195.446 479.363 194.848C477.358 194.294 475.886 193.312 474.947 191.904C474.051 190.496 473.603 188.576 473.603 186.144C473.603 184.907 473.795 183.84 474.179 182.944C474.563 182.091 475.118 181.302 475.843 180.576C476.611 179.808 477.55 179.019 478.659 178.208C478.104 177.782 477.656 177.184 477.315 176.416C477.016 175.606 476.867 174.71 476.867 173.728C476.867 173.259 477.102 172.512 477.571 171.488C478.083 170.422 478.574 169.483 479.043 168.672C478.147 168.246 477.315 167.67 476.547 166.944C475.822 166.176 475.224 165.152 474.755 163.872C474.286 162.592 474.051 160.971 474.051 159.008C474.051 155.083 475.16 152.288 477.379 150.624C479.598 148.918 482.478 148.064 486.019 148.064C487.171 148.064 488.387 148.15 489.667 148.32C490.947 148.491 491.95 148.683 492.675 148.896L502.211 148.64V152.864L496.195 152.736C496.792 153.334 497.283 154.123 497.667 155.104C498.094 156.086 498.307 157.387 498.307 159.008C498.307 161.782 497.838 163.958 496.899 165.536C495.96 167.115 494.574 168.224 492.739 168.864C490.904 169.504 488.6 169.824 485.827 169.824C485.528 169.824 485.016 169.803 484.291 169.76C483.608 169.675 483.096 169.611 482.755 169.568C482.499 170.166 482.243 170.848 481.987 171.616C481.731 172.384 481.603 172.918 481.603 173.216C481.603 174.027 481.752 174.646 482.051 175.072C482.35 175.499 483.032 175.776 484.099 175.904C485.208 176.032 486.936 176.096 489.283 176.096C492.355 176.096 494.808 176.352 496.643 176.864C498.478 177.376 499.779 178.315 500.547 179.68C501.358 181.003 501.763 182.944 501.763 185.504C501.763 189.131 500.504 191.734 497.987 193.312C495.47 194.934 491.95 195.744 487.427 195.744ZM487.491 191.52C490.648 191.52 492.974 191.072 494.467 190.176C495.96 189.28 496.707 187.808 496.707 185.76C496.707 184.182 496.451 183.008 495.939 182.24C495.47 181.515 494.659 181.024 493.507 180.768C492.355 180.555 490.819 180.448 488.899 180.448C488.515 180.448 487.982 180.448 487.299 180.448C486.616 180.406 485.912 180.384 485.187 180.384C484.462 180.342 483.8 180.299 483.203 180.256C482.648 180.214 482.264 180.192 482.051 180.192C480.728 181.131 479.811 181.963 479.299 182.688C478.787 183.456 478.531 184.459 478.531 185.696C478.531 187.104 478.787 188.235 479.299 189.088C479.811 189.942 480.707 190.56 481.987 190.944C483.31 191.328 485.144 191.52 487.491 191.52ZM486.019 165.856C488.664 165.856 490.542 165.344 491.651 164.32C492.76 163.254 493.315 161.483 493.315 159.008C493.315 156.534 492.76 154.763 491.651 153.696C490.542 152.63 488.664 152.096 486.019 152.096C483.544 152.096 481.752 152.63 480.643 153.696C479.576 154.763 479.043 156.534 479.043 159.008C479.043 161.483 479.576 163.254 480.643 164.32C481.752 165.344 483.544 165.856 486.019 165.856Z" fill="black"/>
<path d="M447.088 181.344C443.504 181.344 440.709 180.726 438.704 179.488C436.741 178.251 435.355 176.374 434.544 173.856C433.776 171.339 433.392 168.16 433.392 164.32C433.392 160.651 433.819 157.622 434.672 155.232C435.568 152.843 437.019 151.051 439.024 149.856C441.029 148.662 443.717 148.064 447.088 148.064C450.501 148.064 453.211 148.662 455.216 149.856C457.221 151.051 458.651 152.843 459.504 155.232C460.4 157.622 460.848 160.651 460.848 164.32C460.848 168.16 460.443 171.339 459.632 173.856C458.864 176.374 457.477 178.251 455.472 179.488C453.509 180.726 450.715 181.344 447.088 181.344ZM447.088 177.056C449.563 177.056 451.419 176.63 452.656 175.776C453.893 174.88 454.704 173.494 455.088 171.616C455.515 169.739 455.728 167.307 455.728 164.32C455.728 161.376 455.472 159.03 454.96 157.28C454.448 155.531 453.573 154.272 452.336 153.504C451.099 152.736 449.349 152.352 447.088 152.352C444.869 152.352 443.12 152.736 441.84 153.504C440.603 154.272 439.728 155.531 439.216 157.28C438.704 159.03 438.448 161.376 438.448 164.32C438.448 167.307 438.64 169.739 439.024 171.616C439.451 173.494 440.283 174.88 441.52 175.776C442.757 176.63 444.613 177.056 447.088 177.056Z" fill="black"/>
<path d="M406.212 180.704V148.704H411.141V152.992C411.951 152.437 412.975 151.84 414.212 151.2C415.45 150.517 416.815 149.877 418.309 149.28C419.802 148.683 421.295 148.256 422.789 148V153.056C421.338 153.355 419.866 153.76 418.372 154.272C416.879 154.741 415.492 155.253 414.212 155.808C412.975 156.363 411.951 156.853 411.141 157.28V180.704H406.212Z" fill="black"/>
<path d="M366 194.848V148.704H370.928V151.008C371.611 150.582 372.464 150.155 373.488 149.728C374.555 149.259 375.685 148.875 376.88 148.576C378.075 148.235 379.227 148.064 380.336 148.064C384.389 148.064 387.355 149.366 389.232 151.968C391.109 154.528 392.048 158.646 392.048 164.32C392.048 168.502 391.557 171.851 390.576 174.368C389.637 176.843 388.123 178.635 386.032 179.744C383.984 180.811 381.317 181.344 378.032 181.344C376.709 181.344 375.365 181.259 374 181.088C372.677 180.918 371.653 180.768 370.928 180.64V194.848H366ZM377.776 176.992C380.08 176.992 381.893 176.566 383.216 175.712C384.581 174.859 385.541 173.515 386.096 171.68C386.651 169.803 386.928 167.35 386.928 164.32C386.928 160.011 386.288 156.982 385.008 155.232C383.728 153.44 381.936 152.544 379.632 152.544C378.608 152.544 377.541 152.672 376.432 152.928C375.365 153.184 374.341 153.504 373.36 153.888C372.379 154.23 371.568 154.592 370.928 154.976V176.352C371.611 176.438 372.613 176.566 373.936 176.736C375.259 176.907 376.539 176.992 377.776 176.992Z" fill="black"/>
</svg>
